<svg width="40" height="40" viewBox="0 0 63 63" fill="none" xmlns="http://www.w3.org/2000/svg">
<g filter="url(#filter0_d_61_11)">
<path d="M30.9047 18.7331C31.1251 16.9804 31.2354 16.104 31.5 16.104C31.7646 16.104 31.8749 16.9804 32.0953 18.7331L33.397 29.0826C33.4249 29.3047 33.4389 29.4157 33.5116 29.4884C33.5843 29.5611 33.6953 29.5751 33.9174 29.603L44.2669 30.9047C46.0196 31.1251 46.896 31.2354 46.896 31.5C46.896 31.7646 46.0196 31.8749 44.2669 32.0953L33.9174 33.397C33.6953 33.4249 33.5843 33.4389 33.5116 33.5116C33.4389 33.5843 33.4249 33.6953 33.397 33.9174L32.0953 44.2669C31.8749 46.0196 31.7646 46.896 31.5 46.896C31.2354 46.896 31.1251 46.0196 30.9047 44.2669L29.603 33.9174C29.5751 33.6953 29.5611 33.5843 29.4884 33.5116C29.4157 33.4389 29.3047 33.4249 29.0826 33.397L18.7331 32.0953C16.9804 31.8749 16.104 31.7646 16.104 31.5C16.104 31.2354 16.9804 31.1251 18.7331 30.9047L29.0826 29.603C29.3047 29.5751 29.4157 29.5611 29.4884 29.4884C29.5611 29.4157 29.5751 29.3047 29.603 29.0826L30.9047 18.7331Z" fill="#FF9F0F"/>
</g>
<defs>
<filter id="filter0_d_61_11" x="0.104004" y="0.104004" width="62.792" height="62.792" filterUnits="userSpaceOnUse" color-interpolation-filters="sRGB">
<feFlood flood-opacity="0" result="BackgroundImageFix"/>
<feColorMatrix in="SourceAlpha" type="matrix" values="0 0 0 0 0 0 0 0 0 0 0 0 0 0 0 0 0 0 127 0" result="hardAlpha"/>
<feOffset/>
<feGaussianBlur stdDeviation="8"/>
<feComposite in2="hardAlpha" operator="out"/>
<feColorMatrix type="matrix" values="0 0 0 0 1 0 0 0 0 0.623333 0 0 0 0 0.0583333 0 0 0 0.32 0"/>
<feBlend mode="normal" in2="BackgroundImageFix" result="effect1_dropShadow_61_11"/>
<feBlend mode="normal" in="SourceGraphic" in2="effect1_dropShadow_61_11" result="shape"/>
</filter>
</defs>
</svg>
